<?xml version="1.0" encoding="UTF-8" standalone="no"?>
<!DOCTYPE svg PUBLIC "-//W3C//DTD SVG 1.1//EN" "http://www.w3.org/Graphics/SVG/1.1/DTD/svg11.dtd">
<svg xmlns="http://www.w3.org/2000/svg" xmlns:xlink="http://www.w3.org/1999/xlink" version="1.1"
	width="1060" height="533" viewBox="111 246 1060 533" xml:space="preserve">
<desc>Created with Fabric.js 5.3.0</desc>
<defs>
</defs>
<g transform="matrix(1.4549303198503039 0 0 1.4549303198503036 642.95189255885 511.58270676691745)" id="shape-64242709-07db-4267-a18c-2c3e8d1076c8"  >
<g style=""  paint-order="stroke"   >
		<g transform="matrix(1 0 0 1 0 0)" id="Path_01"  >
<path style="stroke: none; stroke-width: 1; stroke-dasharray: none; stroke-linecap: butt; stroke-dashoffset: 0; stroke-linejoin: miter; stroke-miterlimit: 4; fill: rgb(253,216,53); fill-rule: nonzero; opacity: 1;"  paint-order="stroke"  transform=" translate(-125, -121.78801)" d="M 95.83847 198.6833 C 95.33017 198.6833 94.86307000000001 198.34747000000002 94.71874 197.83435 C 90.63306 183.30945 87.73785 166.03424 86.34622 147.87541 C 86.29707 147.23442999999997 86.77667 146.67470999999998 87.41765000000001 146.62583999999998 C 88.05239 146.57981999999998 88.61778000000001 147.05657999999997 88.66694000000001 147.69755999999998 C 90.04720000000002 165.70579999999998 92.91457000000001 182.82474 96.95933000000001 197.2036 C 97.13350000000001 197.82242 96.77295000000001 198.46510999999998 96.15413000000001 198.63898 C 96.04872 198.6691 95.94274 198.6833 95.83847 198.6833 z M 121.57995 63.49279 C 121.93681 62.958349999999996 121.79303999999999 62.235549999999996 121.25889 61.87841 C 115.01019 57.703520000000005 108.78023999999999 53.90139 102.74179 50.578010000000006 C 102.18007999999999 50.268890000000006 101.47118999999999 50.47345000000001 101.16122 51.036300000000004 C 100.85124 51.599430000000005 101.05638 52.30718 101.61951 52.616870000000006 C 107.59971 55.90843 113.77227 59.6756 119.96557000000001 63.81385 C 120.16445000000002 63.94653 120.38891000000001 64.00989 120.61109000000002 64.00989 C 120.9867 64.0099 121.35549 63.82834 121.57995 63.49279 z M 194.32588 84.35064 C 194.32588 89.64414 198.50081 93.93537 203.65083 93.93537 C 208.80084000000002 93.93537 212.97577 89.64414000000001 212.97577 84.35064 C 212.97577 79.05713999999999 208.80084000000002 74.76590999999999 203.65083 74.76590999999999 C 198.50081 74.76591 194.32588 79.05714 194.32588 84.35064 z M 205.76784 61.84256 C 205.76784 65.66725 208.78433 68.76778 212.50536 68.76778 C 216.22638999999998 68.76778 219.24287999999999 65.66726 219.24287999999999 61.84256 C 219.24287999999999 58.01786 216.22638999999998 54.917339999999996 212.50536 54.917339999999996 C 208.78433 54.917339999999996 205.76784 58.01787 205.76784 61.84256 z M 210.28777 40.97612 C 210.28777 43.45279 212.24108999999999 45.46053 214.65062 45.46053 C 217.06015000000002 45.46053 219.01347 43.45279 219.01347 40.97612 C 219.01347 38.49945 217.06015000000002 36.491710000000005 214.65062 36.491710000000005 C 212.24108999999999 36.491710000000005 210.28777 38.49945 210.28777 40.97612 z M 248.6675 138.23199 C 245.49624 161.86807 235.40059 183.95634 219.81777 201.83175 C 219.81194 201.84922 219.80033 201.86086 219.78286 201.87248 C 219.39883 202.31473 219.00893 202.75696 218.61326 203.1992 C 218.57253 203.24571999999998 218.52600999999999 203.29227999999998 218.47944 203.33883 C 215.36636000000001 206.80105 212.038 210.09448 208.50598000000002 213.20757 C 186.2897 232.78789 157.72508000000002 243.57602 128.07820000000004 243.57602 C 63.51250000000003 243.57602 10.532110000000031 193.02785 6.639310000000037 129.42227 C 2.80468 128.31091 0 124.6858 0 120.3915 C 0 116.00407999999999 2.92106 112.32078999999999 6.87203 111.28501999999999 C 9.12974 85.37959999999998 19.62692 60.82997999999999 36.98445 41.23800999999999 C 56.53572 19.17303 83.32558 4.96926 112.4197 1.22776 C 113.05397 1.15211 113.64168000000001 1.59435 113.72311 2.23444 C 113.80458 2.8686700000000003 113.35073 3.4563800000000002 112.71646000000001 3.53785 C 87.44531 6.78476 63.94306000000001 18.09074 45.578860000000006 35.66938 C 54.38275000000001 32.89962 67.27725000000001 34.77912 83.27323000000001 41.238 C 84.16349000000001 39.84729 85.69967000000001 38.93377 87.43949 38.93377 C 90.19179000000001 38.93377 92.42623 41.23218 92.42623 44.06015 C 92.42623 46.89391 90.19179 49.19232 87.43949 49.19232 C 84.68137 49.19232 82.44693000000001 46.893910000000005 82.44693000000001 44.06015 C 82.44693000000001 43.84486 82.45858000000001 43.63535 82.48184 43.43171 C 61.66210000000001 35.04097 46.07345000000001 34.57544 39.183980000000005 42.314510000000006 C 32.59707 49.71604000000001 34.47075 64.5366 44.281270000000006 83.27319 L 78.84507 50.65286 C 79.31060000000001 50.210629999999995 80.04375 50.23392 80.48598000000001 50.699419999999996 C 80.92821 51.164919999999995 80.90495000000001 51.90392 80.43946000000001 52.34616 L 45.41595 85.4029 C 45.625420000000005 85.77531 45.82907 86.1477 46.038540000000005 86.52011 C 50.42596 94.36970000000001 55.92475 102.54513 62.35455 110.82535 C 64.39696 109.57429 66.77684 108.85859 69.32549 108.85859 C 73.33467 108.85859 76.94235 110.63332000000001 79.43861 113.46709000000001 C 84.63481999999999 106.62997000000001 90.25582 99.81032000000002 96.23173 93.1012 C 108.93424 78.83343 122.33501 66.07858 135.53789 55.598870000000005 C 135.13060000000002 54.78426 134.89783 53.85905 134.89783 52.88149000000001 C 134.89783 49.59384000000001 137.49304 46.92884000000001 140.68756 46.92884000000001 C 142.27025999999998 46.92884000000001 143.7017 47.574720000000006 144.74327 48.633750000000006 C 149.16559999999998 45.45666000000001 153.53554 42.56472000000001 157.82983 39.98116 C 157.49233999999998 38.9163 157.14318 37.86892 156.78241999999997 36.83898 C 149.17722 14.902 138.80228 2.32753 128.32256 2.32753 C 119.07062 2.32753 109.96418000000001 11.95768 102.67318 29.45489 C 95.32982 47.07431 90.2849 71.59481 88.45779 98.5127 C 88.41706 99.15279 87.85847 99.63573 87.21838 99.59503 C 86.57831999999999 99.54847 86.09535 98.99566999999999 86.13607999999999 98.35561999999999 C 87.98064 71.19334999999998 93.08958999999999 46.405129999999986 100.52019999999999 28.558809999999994 C 108.31161 9.87456 117.92432 0 128.32256 0 C 140.02422 0 150.91124000000002 12.81306 158.98195 36.07671 C 159.29033 36.96118 159.58710000000002 37.85144 159.88387 38.75918 C 160.7043 38.28203 161.52478 37.81071 162.33944 37.35686 C 183.83996 25.34097 200.49343 23.013439999999996 209.2275 30.79321 C 209.71047 31.21801 209.75121 31.95697 209.32644 32.43412 C 208.89582 32.91709 208.16268 32.95783 207.67971 32.53307 C 199.85339 25.56209 183.74105 28.06418 163.47406999999998 39.38763 C 162.51981999999998 39.91716 161.56552 40.46992 160.60539999999997 41.02854 C 164.28871999999998 52.86983 167.07593999999997 66.46264 168.87977999999998 81.12603999999999 C 175.71107999999998 81.96976999999998 182.32708 83.02297999999999 188.63466 84.28568999999999 C 189.26310999999998 84.41368999999999 189.67625999999998 85.02465999999998 189.54822 85.6531 C 189.43767 86.2059 188.94889999999998 86.58991999999999 188.40776 86.58991999999999 C 188.33211 86.58991999999999 188.25645 86.58409999999999 188.18081999999998 86.56666 C 182.10595999999998 85.35051 175.74015999999997 84.33221999999999 169.16491 83.51178 C 169.88061 89.72045 170.41593 96.0979 170.77089999999998 102.62078 L 170.77089999999998 102.6266 C 185.38197 117.11549 197.78188999999998 132.08149 207.12108999999998 146.5413 C 207.47024 147.07662000000002 207.31311999999997 147.79815000000002 206.77779999999998 148.1473 C 206.57994 148.27529 206.36464999999998 148.33347 206.14353999999997 148.33347 C 205.76530999999997 148.33347 205.38709999999998 148.1473 205.16596999999996 147.80396000000002 C 196.30391999999995 134.07734000000002 184.64878999999996 119.89104000000002 170.93964999999997 106.08881000000002 C 171.17240999999999 111.21519000000002 171.28875999999997 116.41722000000003 171.28875999999997 121.67163000000002 C 171.28875999999997 134.84543000000002 170.56139999999996 147.69340000000003 169.16491999999997 159.84894000000003 C 171.31205999999997 159.58126000000001 173.44172999999998 159.29032000000004 175.54231999999996 158.97611000000003 C 176.64790999999997 155.06585000000004 180.15667999999997 152.20299000000003 184.32293999999996 152.20299000000003 C 187.34873999999996 152.20299000000003 190.03703999999996 153.71587000000002 191.69538999999995 156.04923000000002 C 199.38788999999994 154.39087000000004 206.58576999999994 152.40664 213.15520999999995 150.13149 C 235.09218999999996 142.52047000000002 247.67247999999995 132.14553 247.67247999999995 121.67164000000001 C 247.67247999999995 111.79125 236.86691999999994 102.21349000000001 217.24585999999994 94.70137000000001 C 216.64067999999995 94.46864000000001 216.34393999999995 93.79945000000001 216.57085999999993 93.2001 C 216.80361999999994 92.60077000000001 217.4785899999999 92.29818 218.07795999999993 92.52513 C 238.65912 100.40964 250 110.76135 250 121.67165 C 250 133.36748 237.18694 144.2603 213.91747 152.33101 C 207.45276 154.57127 200.38288 156.53221 192.84169 158.18477 C 193.24319 159.23798 193.46431 160.39009 193.46431 161.59461 C 193.46431 166.78498 189.36784 170.99197999999998 184.32292 170.99197999999998 C 179.27218000000002 170.99197999999998 175.18153 166.78498 175.18153 161.59461 C 175.18153 161.52479 175.18153 161.45496 175.18736 161.38513999999998 C 173.11004000000003 161.68768999999998 171.00363000000002 161.96702 168.87977 162.22884 C 166.81988 178.96961 163.47405 194.31966 158.98194 207.26656 C 152.95365 224.63573 145.36005 236.1803 137.02753 240.911 C 162.86891000000003 238.97915 187.42437 228.69147 206.96395 211.46193 C 208.38375000000002 210.21088 209.76862 208.93072999999998 211.12443000000002 207.61566 C 208.48269000000002 208.44195 205.46855000000002 208.85506999999998 202.11689 208.8609 C 193.95307000000003 208.8609 183.75851 206.41116 171.96374 201.52337999999997 C 171.37022 201.27899999999997 171.08509 200.59815999999998 171.33531 200.00466999999998 C 171.57968 199.40529999999998 172.26050999999998 199.12601999999998 172.85399999999998 199.37039 C 193.6214 207.97642 209.54751 208.80273 216.82686999999999 201.69791999999998 C 216.82686999999999 201.69210999999999 216.82686999999999 201.69210999999999 216.8327 201.69210999999999 C 217.04799 201.47680999999997 217.25745999999998 201.25569 217.46113 201.02874999999997 C 217.65896 200.80184999999997 217.85681 200.56907999999999 218.03719999999998 200.33051999999998 C 218.04303 200.33051999999998 218.04303 200.33051999999998 218.04303 200.32468999999998 C 223.75710999999998 192.95803999999998 222.11038 179.40599999999998 213.34723 161.97278999999997 C 213.05629 161.40256999999997 213.28905 160.69847 213.86511 160.41335999999998 C 214.43535 160.12241999999998 215.1336 160.35518 215.42453999999998 160.93123999999997 C 222.15109999999999 174.31453999999997 224.79283999999998 185.63214999999997 223.25665999999998 193.91815999999997 C 235.59839999999997 177.62544999999997 243.61674999999997 158.36514999999997 246.35739999999998 137.92361999999997 C 246.44469999999998 137.28350999999998 247.03822999999997 136.84127999999998 247.66663 136.92274999999998 C 248.30673 137.01006 248.75476 137.59195 248.6675 138.23199 z M 166.7908 83.22085 C 160.53556999999998 82.48767 154.10576999999998 81.93487 147.57124 81.56828 C 150.70756 84.16932 153.82065999999998 86.84596 156.89297 89.58082 C 160.82066999999998 93.07211000000001 164.62622 96.61575 168.29789 100.18852 C 167.94292 94.41043 167.43669 88.73708 166.7908 83.22085 z M 46.91719 169.21724 L 15.192979999999999 131.86621 C 14.774009999999999 131.37162999999998 14.838 130.63844 15.326799999999999 130.2253 C 15.815559999999998 129.80635 16.54874 129.86454 16.96771 130.35915 L 47.88313 166.75589 C 48.08677 166.24384 48.296240000000004 165.73178 48.511540000000004 165.2139 C 52.392720000000004 155.86303999999998 57.61802 145.94777 63.95472 135.80555999999999 C 59.078540000000004 133.66424999999998 55.66872 128.68914999999998 55.66872 122.89941999999999 C 55.66872 118.61094 57.53654 114.7705 60.48086 112.20441 C 53.99289 103.84859 48.44171 95.58585 44.00777 87.65478999999999 C 43.89721 87.45110999999999 43.780860000000004 87.24745999999999 43.6703 87.04964999999999 L 18.655139999999996 110.66241 C 18.428229999999996 110.87187999999999 18.143079999999998 110.97664999999999 17.857959999999995 110.97664999999999 C 17.543759999999995 110.97664999999999 17.235339999999994 110.85444 17.008429999999993 110.61589 C 16.56618999999999 110.14452999999999 16.589459999999992 109.41139 17.054949999999995 108.96915 L 42.523959999999995 84.93158 C 34.75583999999999 70.2914 31.666049999999995 58.054429999999996 33.39422 49.250539999999994 C 19.65018 67.14342 11.28853 88.53926 9.22868 110.99409 C 14.23286 111.04064 18.27695 115.23021 18.27695 120.39151 C 18.27695 125.57607 14.1863 129.78306 9.14139 129.78306 C 9.09483 129.78306 9.04248 129.78306 8.99592 129.77728000000002 C 10.89869 158.97613 23.35678 185.34123000000002 42.582159999999995 205.09033000000002 C 39.68439 196.7345 41.1391 184.43349 46.91719 169.21724 z M 128.32256 241.01573 C 138.80228 241.01573 149.17722 228.43544 156.78243 206.50429 C 161.16984 193.85417 164.45745 178.86487 166.5057 162.51395 C 154.35017 163.91048 141.49639 164.63783999999998 128.32255999999998 164.63783999999998 C 127.84541999999998 164.63783999999998 127.36244999999998 164.63783999999998 126.88529999999999 164.63200999999998 C 126.24524999999998 164.63200999999998 125.72735999999999 164.10833999999997 125.72735999999999 163.46241999999998 C 125.73317999999999 162.82235999999997 126.25106 162.30447999999998 126.89111999999999 162.30447999999998 C 126.89693999999999 162.30447999999998 126.89693999999999 162.30447999999998 126.89693999999999 162.30447999999998 C 127.37408999999998 162.31031 127.84540999999999 162.31031 128.32254999999998 162.31031 C 141.60693999999998 162.31031 154.55960999999996 161.56551 166.78497 160.13406999999998 C 168.21642999999997 147.90870999999999 168.96121 134.956 168.96121 121.67164999999997 C 168.96121 115.57932999999997 168.80414 109.55685999999997 168.49571 103.64490999999997 C 164.28871 99.49025999999996 159.89551 95.37638999999997 155.34518 91.32064999999997 C 151.50474 87.89917999999997 147.60615 84.57664999999997 143.66679 81.37629999999997 C 138.59277 81.14935999999997 133.46638 81.03296999999998 128.32254999999998 81.03296999999998 C 125.11637999999998 81.03296999999998 121.87528999999998 81.07952999999998 118.68658999999998 81.16678999999998 L 118.65167999999998 81.16678999999998 C 118.02322999999998 81.16678999999998 117.51117999999998 80.66638999999998 117.49373999999999 80.03211999999998 C 117.47626999999999 79.39205999999997 117.98249999999999 78.85673999999997 118.62258999999999 78.83925999999998 C 121.83455999999998 78.75199999999998 125.09894999999999 78.70543999999998 128.32255999999998 78.70543999999998 C 132.43648 78.70543999999998 136.54458 78.78108999999998 140.61773999999997 78.92655999999998 C 137.95854999999997 76.80849999999998 135.28767999999997 74.74863999999998 132.61684999999997 72.75278999999998 C 132.09896999999998 72.36872999999997 131.99422999999996 71.64137999999997 132.37825999999998 71.12931999999998 C 132.76232 70.61146999999998 133.48968 70.50669999999998 134.00755999999998 70.89075999999997 C 137.53375999999997 73.52087999999998 141.05415 76.25569999999998 144.54545 79.08945999999997 C 152.01679 79.43278999999997 159.37178999999998 80.02631999999997 166.50569 80.84675999999997 C 164.74257 66.76518999999998 162.06591999999998 53.69613999999997 158.55136 42.26212999999998 L 158.54552999999999 42.26212999999998 C 154.43744999999998 44.75259999999998 150.25370999999998 47.53397999999998 146.02922999999998 50.57142999999998 C 146.32018 51.281309999999976 146.48311999999999 52.06104999999998 146.48311999999999 52.88148999999998 C 146.48311999999999 56.16913999999998 143.88791999999998 58.83412999999998 140.68756 58.83412999999998 C 139.26778 58.83412999999998 137.97018 58.31045999999998 136.96349999999998 57.43180999999998 C 123.87696999999999 67.82421999999998 110.58678999999998 80.48016999999997 97.97154999999998 94.64902999999998 C 91.87925999999997 101.48614999999998 86.15934999999998 108.44543999999998 80.87587999999998 115.41641999999999 L 80.87587999999998 115.42220999999999 C 82.21420999999998 117.58682999999999 82.98228999999998 120.15292 82.98228999999998 122.89941999999999 C 82.98228999999998 126.13468999999999 81.91742999999998 129.11391 80.11939999999998 131.48801 C 86.67722999999998 138.43569 93.77619999999999 145.32515 101.29992999999999 152.02263 C 118.98917999999999 167.76836 137.67924 181.21564999999998 155.35683999999998 190.90402 C 155.92125 191.2124 156.1307 191.92232 155.82232 192.48672 C 155.60702999999998 192.87078 155.21135999999998 193.09189999999998 154.79820999999998 193.09189999999998 C 154.61200999999997 193.09189999999998 154.41997999999998 193.04532999999998 154.23959 192.94642 C 136.4107 183.17076999999998 117.56938 169.62456999999998 99.75210999999999 153.76244 C 92.23419999999999 147.07079 85.13521999999999 140.18132 78.56577999999999 133.23365 C 76.13932999999999 135.53205 72.89241999999999 136.93441 69.32547999999998 136.93441 C 68.25483999999999 136.93441 67.21323999999998 136.80637000000002 66.21824999999998 136.56782 C 59.81753999999998 146.76242000000002 54.557299999999984 156.73007 50.65867999999998 166.11001000000002 C 50.28629999999998 167.0061 49.93132999999998 167.89056000000002 49.588039999999985 168.76339000000002 L 74.98718999999998 198.6663 C 75.40616999999999 199.1551 75.34798999999998 199.88828 74.85336999999998 200.30721 C 74.63807999999999 200.4876 74.37039999999999 200.58071 74.10274999999999 200.58071 C 73.77107999999998 200.58071 73.44522999999998 200.44108 73.21244999999999 200.17339 L 48.6454 171.248 C 41.70933 190.14175 41.77919 204.41530999999998 48.965430000000005 210.81018999999998 C 54.406020000000005 215.65144999999998 63.64049000000001 215.87256999999997 75.25488 212.03215999999998 C 74.77773 210.85092999999998 74.51587 209.55916999999997 74.51587 208.20335999999998 C 74.51587 202.64637999999997 78.89746000000001 198.14262999999997 84.29731000000001 198.14262999999997 C 88.21923000000001 198.14262999999997 91.59997000000001 200.51088999999996 93.15941000000001 203.93235999999996 C 103.58091 198.13096999999996 115.00909000000001 190.07774999999995 126.80386000000001 180.03443999999996 C 127.29262000000001 179.61545999999996 128.02581 179.67367999999996 128.44477 180.16242999999997 C 128.85789 180.65122999999997 128.79972 181.39019999999996 128.31092 181.80333999999996 C 116.18451000000002 192.12593999999996 104.53521 200.33627999999996 93.89838 206.23657999999998 C 94.02059 206.87085999999996 94.08458 207.52836999999997 94.08458 208.20334999999997 C 94.08458 213.75452999999996 89.70303 218.25829999999996 84.29731000000001 218.25829999999996 C 81.05626000000001 218.25829999999996 78.18176000000001 216.63482999999997 76.40699000000001 214.13855999999996 L 76.4012 214.13855999999996 C 70.69872000000001 216.05293999999995 65.50834 217.03632999999996 60.963840000000005 217.03632999999996 C 58.962160000000004 217.03632999999996 57.08269000000001 216.84432999999996 55.342870000000005 216.46025999999998 C 73.42193 230.40218999999996 95.60332 239.28171999999998 119.72815 240.95753999999997 C 111.84947 236.51776999999996 104.58176 225.97406999999995 98.72221 210.20501999999996 C 98.49527 209.59986999999995 98.80368 208.93069999999997 99.40882 208.70374999999996 C 100.00814000000001 208.48262999999994 100.67732000000001 208.79104999999996 100.90426000000001 209.39039999999994 C 108.48618 229.78542 118.22109 241.01573 128.32256 241.01573 z M 52.40781 123.8023 C 52.43168 123.16019 51.930479999999996 122.62035 51.28837 122.59592 L 22.03599 121.50489 C 21.39899 121.48215 20.85319 121.98222 20.829610000000002 122.6249 C 20.805740000000004 123.26701 21.30694 123.80685 21.949050000000003 123.83127999999999 L 51.20143 124.92231 C 51.2162 124.92287999999999 51.23098 124.92287999999999 51.24575 124.92287999999999 C 51.86827 124.92288 52.38452 124.43021 52.40781 123.8023 z M 81.85056 195.25281 C 82.48131000000001 195.12894 82.89244000000001 194.5175 82.76885 193.88675 L 72.16569 139.77281 C 72.0421 139.14206 71.42981 138.73009 70.79963 138.85454 C 70.16887999999999 138.97841 69.75774999999999 139.58984999999998 69.88135 140.2206 L 80.48451 194.33454 C 80.59333 194.8897 81.08031 195.27441000000002 81.62555 195.27441000000002 C 81.69969 195.2744 81.77498 195.26758 81.85056 195.25281 z M 162.95612 153.62094 C 163.18171 153.01916 162.87656 152.34862999999999 162.27478 152.12248 L 86.75764 123.80287 C 86.15502 123.57841 85.48477 123.88242 85.25945999999999 124.48419 C 85.03357999999999 125.08597 85.33872999999998 125.75649 85.94049999999999 125.98266 L 161.45765999999998 154.30226 C 161.59232999999998 154.35226 161.73040999999998 154.37671 161.86622999999997 154.37671 C 162.3373 154.37671 162.78052 154.08803 162.95612 153.62094 z M 73.12772 105.54432 L 85.495 55.70159 C 85.64985 55.077940000000005 85.26969000000001 54.44662 84.64576000000001 54.292060000000006 C 84.02041000000001 54.13494000000001 83.39079000000001 54.51709 83.23623 55.14130000000001 L 70.86896 104.98402000000002 C 70.71411 105.60767000000001 71.09426 106.23899000000002 71.7182 106.39355000000002 C 71.81224999999999 106.41713000000001 71.90657999999999 106.42822000000002 71.9992 106.42822000000002 C 72.5214 106.42822 72.99645 106.0742 73.12772 105.54432 z" stroke-linecap="round" />
</g>
</g>
</g>
<g transform="matrix(4.075186094538564 0 0 4.075186094538564 639.8956766917295 511.58270676691745)" id="shape-9d0b7b4b-7ab9-41dd-aca8-8480e7002b29"  >
<g style=""  paint-order="stroke"   >
		<g transform="matrix(1 0 0 1 0 0)" id="path-01_00000065052981019282117470000011647518724811875500_"  >
<path style="stroke: none; stroke-width: 1; stroke-dasharray: none; stroke-linecap: butt; stroke-dashoffset: 0; stroke-linejoin: miter; stroke-miterlimit: 4; fill: rgb(253,216,53); fill-rule: nonzero; opacity: 1;"  paint-order="stroke"  transform=" translate(-125.00000471933298, -62.035444999999996)" d="M 182.33224 99.15981 L 187.39082000000002 99.15981 L 209.22383000000002 120.99189 C 209.57832000000002 121.34638 210.05913 121.54553 210.56047 121.54553 L 223.48852000000002 121.54553 C 223.50953 121.54622 223.52915000000002 121.55753 223.55017 121.55753 C 223.57117 121.55753 223.59079 121.54622 223.61180000000002 121.54553 L 236.58142 121.54553 C 237.43104 123.32826 239.42340000000002 124.46235 241.62416000000002 123.94528 C 243.15481000000003 123.58565 244.42532000000003 122.3581 244.82011000000003 120.83613 C 245.58483000000004 117.88799999999999 243.38012000000003 115.23857 240.55712000000003 115.23857 C 238.79792000000003 115.23857 237.29146000000003 116.27503 236.58141000000003 117.76347 L 224.32116000000002 117.76347 L 202.47744000000003 95.91976 C 202.12272000000004 95.56503 201.64161000000004 95.36574999999999 201.13995000000003 95.36574999999999 L 182.33224 95.36574999999999 C 181.28454000000002 95.36574999999999 180.43522000000002 96.21507999999999 180.43522000000002 97.26276999999999 L 180.43522000000002 97.26277999999999 C 180.43523 98.31049 181.28455 99.15981 182.33224 99.15981 z M 218.97311 117.76348 L 211.34346 117.76348 L 192.72687 99.1478 L 200.35744 99.1478 L 218.97311 117.76348 z M 249.99998 86.27585 C 250.0066 88.97849000000001 247.58561 91.11772 244.79527 90.63492000000001 C 243.27372 90.37165 241.97247 89.23987000000001 241.44091999999998 87.79009 C 241.02692999999996 86.66097 241.11808999999997 85.59633000000001 241.48255999999998 84.67151000000001 L 227.7708 70.95975 L 214.83190000000002 70.95975 L 225.96035 82.08821 C 227.0984 81.73467000000001 228.36733 81.68306 229.92558 82.94591 C 230.95212999999998 83.77786 231.68972 85.0064 231.67776 86.3277 C 231.65327000000002 89.03617 229.19046 91.16241 226.37817 90.61756999999999 C 224.85824000000002 90.32310999999999 223.56900000000002 89.16554999999998 223.07937 87.69681999999999 C 222.71203 86.59492999999999 222.80493 85.55060999999999 223.16883 84.64472999999998 L 209.48385000000002 70.95974999999999 L 196.45629000000002 70.95974999999999 L 196.45629000000002 73.08276999999998 L 182.33225000000002 73.08276999999998 C 181.28455000000002 73.08276999999998 180.43523000000002 72.23343999999999 180.43523000000002 71.18573999999998 L 180.43523000000002 66.95193999999998 C 180.43523000000002 65.90423999999997 181.28455000000002 65.05490999999998 182.33225000000002 65.05490999999998 L 196.45629000000002 65.05490999999998 L 196.45629000000002 67.17769999999997 L 210.26685000000003 67.17769999999997 L 228.55332000000004 67.17769999999997 C 229.05498000000003 67.17769999999997 229.53609000000003 67.37697999999997 229.89083000000005 67.73170999999998 L 244.25585000000004 82.09674999999999 C 245.35033000000004 81.74910999999999 246.57242000000005 81.68471999999998 248.04339000000004 82.77647999999999 C 249.16458 83.60864 249.99657 84.87958 249.99998 86.27585 z M 182.33224 28.70536 L 201.14044 28.70536 C 201.64178 28.70536 202.1226 28.5062 202.47711 28.15169 L 224.32117 6.30763 L 236.58165 6.30763 C 237.43173 8.089599999999999 239.42296 9.223419999999999 241.62331 8.7069 C 243.15415000000002 8.347539999999999 244.42493000000002 7.120029999999999 244.81995 5.597999999999999 C 245.58517 2.64952 243.38034 0 240.55713 0 C 238.79746 0 237.29102 1.03669 236.58119 2.5256 L 223.6118 2.5256 C 223.56978999999998 2.52421 223.53054999999998 2.52421 223.48852 2.5256 L 210.56098 2.5256 C 210.05932 2.5256 209.57819 2.7248799999999997 209.22344 3.0796099999999997 L 187.39081000000002 24.91132 L 182.33223 24.91132 C 181.28453000000002 24.91132 180.43521 25.76065 180.43521 26.80834 L 180.43521 26.80834 C 180.43523 27.85604 181.28455 28.70536 182.33224 28.70536 z M 211.34346 6.30764 L 218.97311 6.30764 L 200.35743 24.92332 L 192.72686 24.92332 L 211.34346 6.30764 z M 180.43523 38.86638 C 180.43523 37.81868 181.28455 36.96936 182.33225 36.96936 L 196.45629 36.96936 L 196.45629 39.01735 L 205.29092 39.01735 L 225.11387 19.1937 C 224.74828 18.10602 224.68006 16.88013 225.65765 15.45075 C 226.45018 14.29196 227.71684 13.430869999999999 229.11981999999998 13.380669999999999 C 231.83259999999999 13.283599999999998 234.02374999999998 15.634439999999998 233.65801 18.397019999999998 C 233.46438999999998 19.859599999999997 232.45272 21.137589999999996 231.12203 21.77469 C 229.87716 22.37071 228.73556 22.29107 227.73803 21.91736 L 207.41093 42.24539 C 207.05622 42.600120000000004 206.57511 42.7994 206.07347000000001 42.7994 L 196.45630000000003 42.7994 L 196.45630000000003 44.997209999999995 L 182.33226000000002 44.997209999999995 C 181.28456000000003 44.997209999999995 180.43524000000002 44.147879999999994 180.43524000000002 43.10019 L 180.43524000000002 38.86638 z M 180.43523 52.88515 C 180.43523 51.837450000000004 181.28455 50.988130000000005 182.33225 50.988130000000005 L 196.45629 50.988130000000005 L 196.45629 53.111380000000004 L 209.48385 53.111380000000004 L 223.16882999999999 39.4264 C 222.8037 38.51748 222.7114 37.46846 223.08309 36.36365 C 223.57589 34.89884 224.86411 33.74573 226.3816 33.45289 C 229.18415 32.912049999999994 231.63872999999998 35.02354 231.67749999999998 37.719199999999994 C 231.69644999999997 39.03636999999999 230.96638 40.263209999999994 229.94917999999998 41.10021999999999 C 228.38156999999998 42.390139999999995 227.10404 42.33810999999999 225.96058 41.98268999999999 L 214.8319 53.111369999999994 L 227.77079999999998 53.111369999999994 L 241.48278999999997 39.399379999999994 C 241.12089999999998 38.482169999999996 241.02860999999996 37.428219999999996 241.43066999999996 36.30676 C 241.95303999999996 34.849689999999995 243.25349999999997 33.70887 244.77771999999996 33.43928 C 247.58366999999996 32.94298 250.02090999999996 35.09959 249.99986999999996 37.81892 C 249.98901999999995 39.21962 249.14804999999996 40.49211 248.01649999999995 41.31775 C 246.55314999999996 42.38547 245.34312999999995 42.319539999999996 244.25584999999995 41.97436999999999 L 229.89082999999997 56.3394 C 229.53608999999997 56.69413 229.05497999999997 56.893409999999996 228.55331999999996 56.893409999999996 L 210.26684999999995 56.893409999999996 L 196.45628999999994 56.893409999999996 L 196.45628999999994 59.016189999999995 L 182.33224999999993 59.016189999999995 C 181.28454999999994 59.016189999999995 180.43522999999993 58.16685999999999 180.43522999999993 57.11917 L 180.43522999999993 52.88515 z M 180.43523 81.01827 C 180.43523 79.97057 181.28455 79.12124 182.33225 79.12124 L 196.45629 79.12124 L 196.45629 81.27172 L 206.07345999999998 81.27172 C 206.57511 81.27172 207.05622 81.47101 207.41091999999998 81.82574 L 227.73801999999998 102.15377 C 228.73609999999996 101.77919999999999 229.88053999999997 101.70129 231.12425 102.29666999999999 C 232.45306 102.93279 233.46267 104.20904999999999 233.65741 105.66932999999999 C 234.02495 108.42553999999998 231.8477 110.77290999999998 229.14516 110.69130999999999 C 227.74442 110.64900999999999 226.47647 109.79605 225.67679 108.64521999999998 C 224.68022000000002 107.21104999999999 224.74530000000001 105.97267999999998 225.11363 104.87742999999998 L 205.29091 85.05377999999997 L 196.45628 85.05377999999997 L 196.45628 87.14931999999997 L 182.33223999999998 87.14931999999997 C 181.28454 87.14931999999997 180.43522 86.29998999999998 180.43522 85.25228999999997 L 180.43522 81.01827 z M 67.66776 24.91132 L 62.60919 24.91132 L 40.77655 3.07961 C 40.4218 2.72488 39.94068 2.5256 39.43901 2.5256 L 26.51147 2.5256 C 26.469459999999998 2.52421 26.43022 2.52421 26.388199999999998 2.5256 L 13.41881 2.5256 C 12.569130000000001 0.7433399999999999 10.57798 -0.3909600000000002 8.37737 0.1252399999999998 C 6.846350000000001 0.4843699999999998 5.575310000000001 1.7118399999999998 5.180150000000001 3.2339599999999997 C 4.414650000000001 6.182589999999999 6.619550000000001 8.83232 9.442860000000001 8.83232 C 11.20207 8.83232 12.708290000000002 7.7960899999999995 13.418350000000002 6.307649999999999 L 25.67883 6.307649999999999 L 47.52289 28.1517 C 47.877399999999994 28.506210000000003 48.35821 28.705370000000002 48.859559999999995 28.705370000000002 L 67.66775 28.705370000000002 C 68.71545 28.705370000000002 69.56478 27.856040000000004 69.56478 26.80835 L 69.56478 26.80835 C 69.56478 25.76064 68.71545 24.91132 67.66776 24.91132 z M 31.02688 6.30764 L 38.65653 6.30764 L 57.273129999999995 24.92332 L 49.642559999999996 24.92332 L 31.02688 6.30764 z M 67.66776 95.36576 L 48.85956 95.36576 C 48.35821 95.36576 47.8774 95.56492 47.522890000000004 95.91942999999999 L 25.678830000000005 117.76348999999999 L 13.41858 117.76348999999999 C 12.5685 115.98154 10.57698 114.84738999999999 8.37678 115.36401 C 6.845940000000001 115.72345 5.5752299999999995 116.95105 5.1800999999999995 118.47305999999999 C 4.41473 121.42126999999999 6.61959 124.07088999999999 9.44286 124.07088999999999 C 11.2023 124.07088999999999 12.70898 123.03442999999999 13.418579999999999 121.54552999999999 L 26.3882 121.54552999999999 C 26.40921 121.54621999999999 26.42883 121.55752999999999 26.449830000000002 121.55752999999999 C 26.470840000000003 121.55752999999999 26.490460000000002 121.54621999999999 26.511460000000003 121.54552999999999 L 39.439530000000005 121.54552999999999 C 39.940870000000004 121.54552999999999 40.421670000000006 121.34637999999998 40.77617000000001 120.99188999999998 L 62.60918000000001 99.15980999999998 L 67.66775000000001 99.15980999999998 C 68.71545000000002 99.15980999999998 69.56478000000001 98.31048999999997 69.56478000000001 97.26278999999998 L 69.56478000000001 97.26277999999998 C 69.56478 96.21509 68.71545 95.36576 67.66776 95.36576 z M 38.65653 117.76348 L 31.02688 117.76348 L 49.64256 99.1478 L 57.27313 99.1478 L 38.65653 117.76348 z M 69.56478 85.20475 C 69.56478 86.25244 68.71545 87.10177 67.66775 87.10177 L 53.54372 87.10177 L 53.54372 85.05378 L 44.7091 85.05378 L 24.88614 104.87674 C 25.25187 105.96484 25.32001 107.19266999999999 24.3412 108.62213 C 23.547250000000002 109.78162 22.27823 110.64241 20.87379 110.69069 C 18.15806 110.78404 15.96702 108.42427 16.34444 105.65576 C 16.54391 104.19253 17.56093 102.91598 18.89659 102.28603 C 20.13538 101.70176 21.26973 101.78205 22.26152 102.15332 L 42.58943 81.8254 C 42.94394 81.4709 43.42475 81.27173 43.9261 81.27173 L 53.54372 81.27173 L 53.54372 79.07369 L 67.66775 79.07369 C 68.71545 79.07369 69.56478 79.92302 69.56478 80.97072 L 69.56478 85.20475 z M 69.56478 71.18574 C 69.56478 72.23344 68.71545 73.08277 67.66775 73.08277 L 53.54372 73.08277 L 53.54372 70.95975 L 40.51616 70.95975 L 26.83118 84.64473 C 27.19509 85.55060999999999 27.28799 86.59492999999999 26.92065 87.69682 C 26.431019999999997 89.16555 25.141779999999997 90.32311 23.62184 90.61757 C 20.809549999999998 91.16241 18.346739999999997 89.03617 18.322249999999997 86.32770000000001 C 18.310299999999998 85.00640000000001 19.047889999999995 83.77786 20.074449999999995 82.94591000000001 C 21.632689999999997 81.68305000000001 22.901629999999994 81.73467000000001 24.039669999999994 82.08821000000002 L 35.16812999999999 70.95975000000001 L 22.2292 70.95975000000001 L 8.51744 84.67151 C 8.882000000000001 85.59654 8.97312 86.66141999999999 8.55884 87.7908 C 8.02703 89.24056 6.72551 90.37218 5.20383 90.63509 C 2.41352 91.11721 -0.006639999999999979 88.97815 0.000020000000000131024 86.2758 C 0.003460000000000131 84.87961 0.8353500000000001 83.60875 1.95646 82.77661 C 3.42751 81.68471000000001 4.64965 81.7491 5.74416 82.09675 L 20.10919 67.73170999999999 C 20.46392 67.37697999999999 20.945030000000003 67.17769999999999 21.44669 67.17769999999999 L 39.73317 67.17769999999999 L 53.543730000000004 67.17769999999999 L 53.543730000000004 65.05490999999999 L 67.66776 65.05490999999999 C 68.71546000000001 65.05490999999999 69.56479 65.90423999999999 69.56479 66.95194 L 69.56479 71.18574 z M 69.56478 57.11918 C 69.56478 58.16688 68.71545 59.0162 67.66775 59.0162 L 53.54372 59.0162 L 53.54372 56.89342 L 39.73316 56.89342 L 21.44668 56.89342 C 20.94502 56.89342 20.463910000000002 56.69414 20.109180000000002 56.33941 L 5.74415 41.97438 C 4.65683 42.319559999999996 3.4467600000000003 42.38549 1.9833500000000002 41.31764 C 0.8518900000000003 40.49202 0.01100000000000012 39.219609999999996 0.00014000000000025103 37.81899 C -0.02093999999999975 35.09997 2.41542 32.94352 5.22134 33.439099999999996 C 6.74569 33.70833 8.046429999999999 34.84896 8.56907 36.30600999999999 C 8.97144 37.427749999999996 8.87919 38.48196999999999 8.5172 39.39939 L 22.2292 53.11137 L 35.16812 53.11137 L 24.03943 41.98269 C 22.89596 42.33811 21.61845 42.390139999999995 20.050829999999998 41.10022 C 19.03363 40.26321 18.303559999999997 39.03637 18.322509999999998 37.7192 C 18.361289999999997 35.02354 20.815859999999997 32.91205 23.618399999999998 33.452890000000004 C 25.135879999999997 33.74573 26.42411 34.89884000000001 26.916909999999998 36.36365000000001 C 27.2886 37.468450000000004 27.196309999999997 38.517480000000006 26.831169999999997 39.42640000000001 L 40.51616 53.11138000000001 L 53.54372 53.11138000000001 L 53.54372 50.98813000000001 L 67.66775 50.98813000000001 C 68.71545 50.98813000000001 69.56478 51.837460000000014 69.56478 52.88515000000001 L 69.56478 57.11918 z M 69.56478 43.05262 C 69.56478 44.100319999999996 68.71545 44.949639999999995 67.66775 44.949639999999995 L 53.54372 44.949639999999995 L 53.54372 42.799389999999995 L 43.9261 42.799389999999995 C 43.424749999999996 42.799389999999995 42.94394 42.600229999999996 42.58943 42.24572 L 22.26128 21.91758 C 21.26561 22.290480000000002 20.12514 22.370810000000002 18.88056 21.776020000000003 C 17.54884 21.139590000000002 16.5362 19.861290000000004 16.34214 18.398120000000002 C 15.97554 15.634060000000002 18.16863 13.281870000000001 20.88313 13.380770000000002 C 22.2867 13.431910000000002 23.55375 14.293990000000003 24.345380000000002 15.454140000000002 C 25.319820000000004 16.8822 25.251350000000002 18.107260000000004 24.88614 19.194390000000002 L 44.7091 39.01735 L 53.54372 39.01735 L 53.54372 36.9218 L 67.66775 36.9218 C 68.71545 36.9218 69.56478 37.77113 69.56478 38.818819999999995 L 69.56478 43.05262 z M 178.54419 106.18835 L 178.54419 17.88185 C 178.54419 12.703700000000001 174.33094999999997 8.49137 169.15279999999998 8.49137 L 80.84719999999999 8.49137 C 75.66904999999998 8.49137 71.45579999999998 12.7037 71.45579999999998 17.88185 L 71.45579999999998 106.18836 C 71.45579999999998 111.36651 75.66904999999998 115.57884 80.84719999999999 115.57884 L 169.15279999999998 115.57884 C 174.33095 115.57883 178.54419 111.36651 178.54419 106.18835 z M 162.16026 106.83009 L 87.83974 106.83009 C 83.62326 106.83009 80.20478 103.41185 80.20478 99.1949 L 80.20478 24.876 C 80.20478 20.659290000000002 83.62325 17.24104 87.83974 17.24104 L 162.16026 17.24104 C 166.37673999999998 17.24104 169.79521 20.659290000000002 169.79521 24.876 L 169.79521 99.19489 C 169.79521 103.41184 166.37674 106.83009 162.16026 106.83009 z" stroke-linecap="round" />
</g>
</g>
</g>
<g transform="matrix(1.9211538461538462 0 0 1.9211538461538462 640.1319786148067 501.99590266420665)" id="tagline-15c11127-ee58-4202-bc38-ad7bf5e5e883-logo"  >
<g style=""  paint-order="stroke"   >
		<g transform="matrix(1 0 0 1 0 0)" id="tagline-15c11127-ee58-4202-bc38-ad7bf5e5e883-logo-path-0"  >
<path style="stroke: rgb(0,0,0); stroke-opacity: 0.5019607843137255; stroke-width: 17.35058691381005; stroke-dasharray: none; stroke-linecap: butt; stroke-dashoffset: 0; stroke-linejoin: miter; stroke-miterlimit: 4; fill: rgb(253,216,53); fill-rule: nonzero; opacity: 1;"  paint-order="stroke"  transform=" translate(-84.38000000000001, 42.989999999999995)" d="M 8 -65.19 L 28.29 -65.19 L 28.29 -1.72 C 28.29 -0.74 29.15 0.12 30.13 0.12 L 48.59 0.12 C 49.57 0.12 50.55 -0.74 50.55 -1.72 L 50.55 -65.19 L 70.85 -65.19 C 71.83 -65.19 72.69 -66.05 72.69 -67.03 L 72.69 -84.25 C 72.69 -85.24 71.83 -86.1 70.85 -86.1 L 8 -86.1 C 7.01 -86.1 6.15 -85.24 6.15 -84.25 L 6.15 -67.03 C 6.15 -66.05 7.01 -65.19 8 -65.19 Z M 160.76 -86.1 L 108.98 -86.1 C 107.99 -86.1 107.13 -85.24 107.13 -84.25 L 107.13 -1.72 C 107.13 -0.74 107.99 0.12 108.98 0.12 L 127.43 0.12 C 128.41 0.12 129.27 -0.74 129.27 -1.72 L 129.27 -29.77 L 149.57 -29.77 C 150.55 -29.77 151.54 -30.63 151.54 -31.61 L 151.54 -48.83 C 151.54 -49.81 150.55 -50.68 149.57 -50.68 L 129.27 -50.68 L 129.27 -65.19 L 160.76 -65.19 C 161.75 -65.19 162.61 -66.05 162.61 -67.03 L 162.61 -84.25 C 162.61 -85.24 161.75 -86.1 160.76 -86.1 Z" stroke-linecap="round" />
</g>
</g>
</g>
</svg>